PathFileType	3	(X/Y/Z)	C:\Users\koon_\Desktop\
DataRate	CameraRate	NumFrames	NumMarkers	Units	OrigDataRate	OrigDataStartFrame	OrigNumFrames
100.0	100.0	14	27	mm	100.0	1272	2034	
Frame#	Time	GM:LFHD			GM:RFHD			GM:LBHD			GM:RBHD			GM:C7			GM:T10			GM:CLAV			GM:STRN			GM:RBAK			GM:LSHO			GM:LUPA			GM:LELB			GM:LFRA			GM:LWRA			GM:LWRB			GM:LFIN			GM:RSHO			GM:RUPA			GM:RELB			GM:RFRA			GM:RWRA			GM:RWRB			GM:RFIN			GM:LASI			GM:RASI			GM:LPSI			GM:RPSI			
		X1	Y1	Z1	X2	Y2	Z2	X3	Y3	Z3	X4	Y4	Z4	X5	Y5	Z5	X6	Y6	Z6	X7	Y7	Z7	X8	Y8	Z8	X9	Y9	Z9	X10	Y10	Z10	X11	Y11	Z11	X12	Y12	Z12	X13	Y13	Z13	X14	Y14	Z14	X15	Y15	Z15	X16	Y16	Z16	X17	Y17	Z17	X18	Y18	Z18	X19	Y19	Z19	X20	Y20	Z20	X21	Y21	Z21	X22	Y22	Z22	X23	Y23	Z23	X24	Y24	Z24	X25	Y25	Z25	X26	Y26	Z26	X27	Y27	Z27	
1272	12.71	45.307304	1607.5302	-151.55359	-108.33494	1606.8237	-147.22043	42.388527	1577.8606	-281.30136	-120.969	1581.3112	-260.49265	-31.564615	1434.6395	-324.37189	-18.331266	1263.2676	-407.2121	-33.643551	1349.8666	-172.5123	-32.07753	1195.1107	-155.70609	-121.22913	1333.0991	-388.41296	130.38651	1404.7355	-236.41995	206.50999	1321.5201	-207.26178	288.20734	1136.7118	-167.47652	208.43512	1229.4142	-74.599831	180.67006	1257.9851	-18.253954	208.26453	1215.3298	24.959003	166.99306	1300.6682	48.323486	-209.16516	1399.6321	-239.93793	-304.18985	1206.953	-193.16502	-338.83939	1112.3944	-178.9662	-294.49072	1192.745	-131.84758	-235.4666	1244.0007	-37.691071	-250.21481	1198.6138	1.3761355	-230.30174	1289.2958	19.682026	118.4473	920.71161	-252.7982	-168.64441	899.83032	-298.15985				-74.135048	958.09503	-493.91306
1273	12.72	46.460739	1631.9904	-153.98676	-107.18739	1631.2925	-149.61624	43.432102	1603.6437	-284.10352	-119.9725	1606.9744	-263.17963	-31.333763	1458.2882	-327.74817	-18.218781	1284.0541	-407.71536	-32.937916	1377.162	-175.48012	-31.663567	1222.9973	-155.10228	-121.29661	1355.5709	-389.95523	130.08463	1430	-242.37366	207.24527	1348.6761	-211.30994	288.51471	1166.8127	-165.14604	206.96478	1269.5071	-85.469086	178.06586	1304.4709	-33.739662	205.08765	1267.4535	14.904467	163.67424	1354.8777	27.169497	-207.79079	1427.2252	-243.11723	-304.33701	1240.295	-188.02681	-339.43054	1145.7787	-169.50865	-295.80161	1231.708	-133.26538	-233.94789	1295.2734	-48.125423	-248.8035	1254.8306	-3.4009163	-228.80585	1347.725	3.1919212	116.39057	943.78229	-245.37218	-169.35175	923.18372	-293.67859				-73.506882	979.56152	-488.96356
1274	12.73	47.614132	1655.6874	-156.10474	-106.21391	1654.8175	-151.89101	44.527992	1628.939	-286.61124	-118.49014	1632.1499	-265.05518	-31.035746	1481.7146	-330.79489	-17.904661	1304.3577	-408.35812	-32.255329	1404.2485	-178.94469	-32.248055	1250.6523	-154.56937	-121.75674	1377.5221	-390.47333	129.78911	1454.7853	-248.44887	207.93246	1375.7726	-215.18648	288.54398	1196.2371	-163.56738	206.24747	1307.7205	-97.542107	176.7655	1348.4659	-50.867645	202.56329	1317.5133	2.1782603	161.65596	1405.5576	3.9203856	-205.81174	1454.1213	-246.14101	-304.49219	1273.6235	-183.35599	-339.68387	1178.9041	-160.4108	-297.2739	1269.5355	-135.32574	-234.56891	1343.7992	-60.77235	-247.18762	1309.3507	-11.339719	-228.12463	1402.7386	-16.495115	114.28114	967.98749	-237.20044	-170.21835	947.57227	-288.75174				-73.160698	1001.2422	-483.35529
1275	12.74	48.896267	1677.9631	-158.34154	-104.89481	1677.011	-154.0677	45.638432	1653.4531	-289.32437	-117.8532	1656.4073	-268.08044	-30.672279	1504.2256	-333.68588	-17.631117	1323.8571	-408.97305	-31.374498	1430.874	-182.90038	-32.027512	1278.8983	-154.82756	-122.59543	1399.0438	-390.73822	129.03328	1478.42	-254.72037	208.62428	1402.7146	-218.91594	288.79605	1224.3364	-162.06679	206.20634	1343.1685	-110.13379	176.32646	1389.2242	-68.927444	200.86212	1364.5035	-12.624572	160.79242	1452.161	-20.909468	-203.2894	1479.9091	-249.52652	-304.13513	1306.4688	-179.15459	-339.41208	1211.4915	-151.42088	-298.56461	1305.8926	-137.69669	-235.11461	1389.2213	-74.932739	-246.15996	1360.9047	-21.149069	-228.09395	1453.4139	-38.719669	111.23592	993.2749	-228.52451	-170.99797	972.9032	-283.52023				-73.145996	1022.7217	-477.23096
1276	12.75	50.177696	1698.1901	-160.70534	-103.61601	1697.0298	-156.00427	46.679543	1676.6158	-292.20114	-116.79557	1679.3347	-270.55585	-30.138451	1525.2583	-336.82516	-17.524719	1342.2539	-409.31915	-29.599009	1456.4531	-187.89554	-30.577229	1306.2507	-149.74068	-123.55862	1419.9008	-391.41208	127.93885	1500.4133	-261.19891	208.84091	1428.9619	-222.59395	289.4213	1250.9924	-160.67517	207.05235	1375.6299	-122.87988	176.64458	1426.3024	-87.587479	199.74545	1407.7815	-28.660433	160.99719	1493.7819	-46.592903	-200.19888	1504.3147	-253.3877	-303.15192	1336.7838	-174.87996	-339.06451	1243.304	-142.48186	-299.58008	1340.5381	-140.4677	-235.79829	1430.6946	-90.334167	-245.92735	1409.2888	-33.115086	-228.67033	1499.3365	-62.440529	106.47295	1020.2259	-221.48924	-171.34126	998.50183	-278.36963				-73.115654	1043.9418	-470.69467
1277	12.76	51.558941	1715.7371	-163.1803	-102.39122	1714.6758	-158.14799	47.674637	1698.0172	-295.19125	-115.73602	1700.2557	-273.07782	-29.508688	1544.3528	-340.45197	-17.412621	1359.1659	-408.15021	-28.754427	1480.1696	-193.42906	-30.501858	1332.1102	-152.58087	-124.42789	1439.7418	-392.39447	126.97317	1520.7637	-267.84531	208.55196	1454.0431	-226.31561	290.29953	1276.097	-158.90054	208.72844	1405.0581	-135.34563	177.68904	1459.4701	-106.35656	199.00415	1446.6842	-45.07235	161.98317	1530.7924	-73.05014	-196.65234	1526.8228	-257.91727	-303.92496	1367.3551	-172.20689	-338.69165	1274.2925	-133.76558	-300.11209	1372.8743	-143.15485	-235.82147	1468.1343	-105.08283	-246.06783	1453.8773	-46.850491	-229.47487	1538.623	-86.296555	101.48547	1047.4554	-217.11662	-170.19647	1023.751	-273.74094				-72.933784	1065.0966	-464.55408
1278	12.77	52.869255	1731.1572	-165.52711	-100.92917	1730.5333	-160.12439	48.558178	1717.0881	-297.96036	-114.95856	1718.7725	-275.37375	-28.830711	1561.4639	-344.6315	-16.979124	1375.094	-408.74332	-27.627991	1502.1826	-198.55083	-29.830179	1356.8784	-152.91795	-125.18898	1458.2855	-393.78372	125.33035	1539.1248	-274.03278	208.04053	1477.375	-230.09283	291.32327	1299.7563	-156.74789	210.89436	1431.2631	-146.85234	179.24316	1488.2659	-124.85753	198.80647	1481.3062	-61.563278	163.53745	1562.8871	-99.842834	-193.02446	1546.828	-262.87805	-304.31577	1393.8187	-168.73132	-338.14264	1303.8291	-125.32317	-300.16827	1402.4551	-144.97214	-236.05101	1501.0463	-120.47752	-246.30179	1493.8329	-61.409763	-231.50179	1573.1284	-110.3913	94.673759	1070.8016	-215.63327	-166.43457	1047.458	-270.23685				-72.539406	1086.3593	-459.45087
1279	12.78	54.269138	1745.8081	-167.93065	-99.582153	1745.7408	-161.98318	49.447983	1734.1056	-300.57648	-113.33842	1735.756	-277.56171	-28.142246	1576.7617	-349.06714	-16.332731	1389.2784	-409.22577	-27.008459	1521.9631	-202.75783	-29.299614	1379.6576	-154.16687	-125.78493	1475.1678	-395.41776	124.76717	1556.426	-280.16824	207.42903	1498.6791	-233.36684	292.42191	1322.452	-154.21217	214.00562	1454.5928	-157.77737	180.82051	1513.8612	-141.85071	198.7558	1512.1465	-77.942024	165.57036	1590.089	-125.52576	-189.93033	1564.9658	-268.03857	-303.80276	1418.6532	-165.13741	-336.68967	1331.7367	-116.7625	-301.57556	1429.7914	-147.14261	-237.80316	1529.2634	-135.53783	-246.66721	1528.4052	-76.113983	-232.64848	1601.917	-132.15948	90.678085	1088.4139	-213.66499	-162.24602	1069.0963	-267.83762				-72.156296	1107.1169	-455.4986
1280	12.79	55.594589	1760.7976	-170.35356	-98.289047	1760.6125	-163.8871	50.338669	1749.6102	-302.93964	-112.81361	1750.9974	-279.35342	-27.429789	1590.4661	-353.43881	-15.409294	1402.5729	-410.25916	-26.082724	1539.4661	-205.91843	-28.616381	1400.2148	-155.82033	-126.1652	1490.0723	-397.35172	124.35251	1572.5687	-285.5881	206.99055	1517.6953	-236.69585	293.43668	1344.3744	-151.44937	216.46791	1475.3069	-167.50362	182.52809	1535.641	-157.75775	198.56116	1538.8051	-94.397812	168.04823	1613.2168	-149.26021	-187.26376	1581.2103	-272.87439	-303.77231	1442.0204	-162.27278	-335.7193	1358.1768	-108.93106	-302.02197	1453.6671	-148.73282	-236.48734	1552.7789	-147.68481	-246.20169	1558.8298	-89.357178	-233.01347	1626.089	-151.8239	87.984093	1102.6366	-212.43645	-159.92439	1088.0322	-267.1994				-71.819443	1126.5278	-452.82468
1281	12.8	56.913582	1775.4108	-172.55539	-96.815628	1775.0208	-165.53326	51.288013	1763.7789	-305.09967	-111.43203	1765.1851	-281.18201	-26.685211	1602.9205	-357.56369	-14.122601	1415.0715	-411.90826	-24.964897	1555.2202	-208.08792	-27.788786	1418.4397	-157.68401	-126.41156	1502.7593	-399.50519	124.28566	1587.7202	-290.3913	206.88585	1534.3942	-239.75294	294.4563	1365.4636	-148.90073	217.92317	1493.6152	-176.47639	184.90446	1554.156	-172.35225	199.8083	1563.3818	-109.46865	170.65044	1632.6227	-170.42204	-185.0443	1595.9789	-277.19031	-303.28632	1463.6868	-160.01195	-334.2934	1382.9161	-101.7034	-299.65039	1474.6709	-149.50723	-237.20924	1573.5917	-158.41534	-245.76021	1584.2981	-100.81812	-232.37401	1646.0602	-168.87498	86.125221	1116.4346	-211.56657	-159.57637	1104.587	-267.21951				-71.299728	1144.41	-450.92188
1282	12.81	58.163994	1789.1156	-174.43797	-95.662964	1788.589	-167.28806	52.294189	1776.6421	-306.95688	-110.90237	1778.1899	-282.52637	-25.947624	1614.5266	-361.26141	-13.017838	1426.8724	-413.71045	-24.069624	1569.0496	-211.03638	-26.996847	1433.9813	-159.53531	-126.43081	1513.2705	-401.50519	124.59256	1601.7715	-294.52591	207.80771	1549.579	-242.43011	295.44528	1385.2888	-146.40546	218.66063	1510.1395	-184.27759	186.80478	1570.1953	-184.97827	201.52518	1585.2423	-123.23367	172.95291	1649.3364	-188.72435	-183.40228	1609.4642	-281.13358	-302.21628	1483.2136	-158.73709	-332.28357	1405.5159	-95.461777	-298.68234	1494.1866	-150.24336	-236.37599	1591.1281	-166.98088	-244.42841	1605.5281	-110.43112	-230.66109	1662.6967	-182.84709	85.100929	1131.7247	-209.64691	-159.526	1120.5925	-267.43295				-70.431465	1161.0994	-449.46841
1283	12.82	59.251938	1801.9056	-176.16061	-94.4356	1801.5631	-168.74857	53.199722	1788.4574	-308.54968	-109.66766	1790.507	-284.0864	-25.168753	1625.5461	-364.41092	-12.068952	1438.2727	-415.71176	-22.927223	1582.4102	-210.60098	-26.368559	1447.1813	-161.21465	-125.73305	1522.0334	-403.58286	125.39307	1614.8743	-297.97769	209.45119	1563.1117	-244.9221	296.32794	1403.5649	-144.19574	218.97105	1525.1427	-190.60229	187.61119	1584.8793	-195.30858	202.54552	1604.2781	-135.3914	174.90764	1663.7412	-203.86258	-182.82654	1621.9314	-284.62643	-300.54108	1500.782	-158.68155	-329.66837	1426.1576	-90.4394	-296.52399	1511.9673	-150.24252	-234.23984	1606.0099	-172.8519	-242.55457	1624.1932	-117.51941	-228.3678	1676.9943	-193.32077	83.966805	1148.3525	-207.9614	-159.44853	1136.6863	-267.07999				-69.304253	1176.5969	-448.31198
1284	12.83	60.232399	1813.5621	-177.72603	-93.636566	1813.3754	-170.09525	54.029079	1799.2942	-310.01373	-108.79055	1801.8889	-285.42804	-24.364063	1636.2963	-366.70007	-10.994844	1449.6296	-418.19821	-21.873747	1594.1531	-211.74091	-25.825382	1458.288	-162.82747	-124.23047	1529.7205	-405.78384	126.59724	1626.7546	-300.79593	211.32614	1574.8657	-247.48987	296.94086	1420.0438	-142.47169	219.23956	1539.0004	-195.05421	188.00356	1597.204	-203.57385	202.80826	1620.2206	-145.19206	176.29251	1676.3777	-215.82004	-183.23299	1633.4581	-287.69983	-298.19388	1515.7197	-159.72888	-326.38126	1444.1681	-86.519951	-293.87674	1527.8751	-149.93398	-231.76416	1620.0258	-177.34467	-240.22325	1640.2598	-122.4437	-225.57442	1689.9795	-200.12572	82.775291	1163.7496	-207.3656	-159.57523	1152.1392	-266.97372				-68.027908	1190.2975	-447.43674
1285	12.84	61.032417	1823.8591	-179.07465	-92.682152	1823.849	-171.33247	54.636814	1809.5314	-311.3186	-108.30904	1812.3773	-286.6499	-23.635752	1647.1716	-367.91806	-9.9523621	1460.7659	-419.0434	-21.190983	1604.8551	-213.5455	-24.952215	1467.859	-164.23895	-122.15215	1537.416	-408.01761	128.1232	1637.2872	-302.9025	213.40018	1585.5175	-249.71718	297.16925	1434.5632	-140.90504	220.61723	1552.3307	-198.66875	188.25856	1608.9539	-209.55444	202.02792	1634.2103	-152.06731	176.88908	1687.4708	-224.71384	-184.1071	1643.8923	-290.45178	-295.47168	1528.1627	-161.50508	-322.71921	1459.6841	-83.329361	-290.88498	1542.0845	-149.04402	-228.29402	1631.918	-179.37918	-236.8974	1654.203	-124.90977	-222.51775	1702.5726	-203.6348	82.982956	1175.1989	-207.82114	-160.65755	1165.7273	-267.1337				-67.030006	1201.7504	-446.95007
